<svg viewBox="0 0 36 32" xmlns="http://www.w3.org/2000/svg" width="36" height="32" fill="none">
	<path d="M36 0L11 0L11 7L0 7L0 32L25 32L25 25L36 25L36 0Z" fill="rgb(50,22,181)" fill-rule="evenodd" />
	<path d="M27.1735 15.1711L27.1735 16.8566L20.13 16.8566L20.13 15.3163C20.13 15.3163 21.5918 14.5797 22.5358 14.0607C23.7719 13.3813 25.1152 12.4705 25.219 11.2142C25.2995 10.2402 24.4886 9.50573 23.5043 9.50573C22.3772 9.50573 21.7652 10.164 21.4176 11.243L19.877 10.6399C20.3453 9.34663 21.4084 7.91211 23.4899 7.91211C25.5716 7.91211 27.0451 9.42673 27.0451 11.1998C27.0451 13.4443 24.5615 14.5239 23.1382 15.1568L23.1382 15.1711L27.1735 15.1711ZM7.41675 23.6046L7.41675 15.1772L10.0512 15.1772L12.5132 21.2216L14.9596 15.1772L17.6097 15.1772L17.6097 23.6046L15.775 23.6046L15.775 17.284L13.2189 23.6046L11.8389 23.6046L9.23583 17.284L9.23583 23.6046L7.41675 23.6046Z" fill="rgb(255,255,255)" fill-rule="evenodd" />
</svg>
